<svg id="Group_37" data-name="Group 37" xmlns="http://www.w3.org/2000/svg" viewBox="0 0 195.84 28.15">
  <defs>
    <style>
      .cls-1 {
        fill: #222;
      }

      .cls-2 {
        fill: #2fad4a;
      }
    </style>
  </defs>
  <g id="St_rbella" data-name="St    rbella">
    <g>
      <path class="cls-1" d="M7.05,27.39a7.64,7.64,0,0,1-3.31-2.52,6.82,6.82,0,0,1-1.31-4H8.62a3,3,0,0,0,.91,2,3,3,0,0,0,2,.7,3.2,3.2,0,0,0,2-.59,2.16,2.16,0,0,0,.16-3.12,5,5,0,0,0-1.46-.95,23.93,23.93,0,0,0-2.47-.85,25.41,25.41,0,0,1-3.77-1.43,6.83,6.83,0,0,1-2.52-2.1,5.91,5.91,0,0,1-1-3.64A6.26,6.26,0,0,1,4.91,5.68,9.92,9.92,0,0,1,11.2,3.79a10,10,0,0,1,6.36,1.89,6.74,6.74,0,0,1,2.58,5.25H13.85A2.46,2.46,0,0,0,13,9.11a3,3,0,0,0-2-.66A2.51,2.51,0,0,0,9.3,9a2,2,0,0,0-.65,1.62,2,2,0,0,0,1.09,1.8,17.9,17.9,0,0,0,3.4,1.39,31.1,31.1,0,0,1,3.76,1.5,7.13,7.13,0,0,1,2.49,2.07,5.53,5.53,0,0,1,1.06,3.5,6.9,6.9,0,0,1-1,3.71,7.24,7.24,0,0,1-3,2.65,10.26,10.26,0,0,1-4.66,1A12.21,12.21,0,0,1,7.05,27.39Z" transform="translate(-2.43 -1.39)"/>
      <path class="cls-1" d="M41.87,4.13V8.79H35.54V28H29.73V8.79H23.41V4.13Z" transform="translate(-2.43 -1.39)"/>
      <path class="cls-1" d="M89.19,28l-5-9H82.84v9H77V4.13h9.76a10.69,10.69,0,0,1,4.81,1,6.84,6.84,0,0,1,3,2.7,7.63,7.63,0,0,1,1,3.83,7.16,7.16,0,0,1-1.34,4.25,7.29,7.29,0,0,1-4,2.65L95.76,28ZM82.84,14.88h3.6a3.29,3.29,0,0,0,2.4-.79,3,3,0,0,0,.8-2.21,2.87,2.87,0,0,0-.8-2.14A3.33,3.33,0,0,0,86.44,9h-3.6Z" transform="translate(-2.43 -1.39)"/>
      <path class="cls-1" d="M117.65,17.82a5.81,5.81,0,0,1,1.26,3.69,5.88,5.88,0,0,1-2.09,4.74A8.82,8.82,0,0,1,111,28H99.87V4.13h10.74a8.82,8.82,0,0,1,5.7,1.67,5.52,5.52,0,0,1,2.06,4.52,5.43,5.43,0,0,1-1.11,3.5,5.72,5.72,0,0,1-2.94,1.94A5.53,5.53,0,0,1,117.65,17.82Zm-12-4h3.81a3.36,3.36,0,0,0,2.19-.63,2.27,2.27,0,0,0,.77-1.85,2.31,2.31,0,0,0-.77-1.87,3.31,3.31,0,0,0-2.19-.65h-3.81Zm6.55,8.85a2.36,2.36,0,0,0,.8-1.92,2.46,2.46,0,0,0-.84-2A3.43,3.43,0,0,0,109.9,18h-4.22v5.27H110A3.41,3.41,0,0,0,112.23,22.64Z" transform="translate(-2.43 -1.39)"/>
      <path class="cls-1" d="M128.77,8.79v4.83h7.79v4.49h-7.79v5.23h8.81V28H123V4.13h14.62V8.79Z" transform="translate(-2.43 -1.39)"/>
      <path class="cls-1" d="M147.84,23.51h7.62V28H142V4.13h5.81Z" transform="translate(-2.43 -1.39)"/>
      <path class="cls-1" d="M164.74,23.51h7.62V28H158.93V4.13h5.81Z" transform="translate(-2.43 -1.39)"/>
      <path class="cls-1" d="M190.68,23.78h-8.91L180.35,28h-6.09L182.9,4.13h6.73L198.26,28h-6.15Zm-1.49-4.48-3-8.74L183.3,19.3Z" transform="translate(-2.43 -1.39)"/>
    </g>
  </g>
  <g id="_" data-name="">
    <path class="cls-2" d="M57.5,1.39c.09.24.22.61.4,1.09L61,11.19a.46.46,0,0,0,.13.18.28.28,0,0,0,.2.05H71.92l-.16.14-6.84,5.61a.32.32,0,0,1-.16.06.58.58,0,0,1-.2-.06l-6.83-5a.31.31,0,0,0-.46,0l-6.83,5a.24.24,0,0,1-.36,0l-6.84-5.54a1.45,1.45,0,0,0-.19-.17H53.64a.44.44,0,0,0,.25-.05.27.27,0,0,0,.11-.18l3.4-9.57Zm8.08,24.42a1.46,1.46,0,0,0-.09-.16l-7.82-6a.27.27,0,0,0-.34,0q-5.14,4-7.72,5.91a.64.64,0,0,0-.19.3c-.18.53-.42,1.32-.73,2.37l-.4,1.22a.25.25,0,0,0,.17-.06l8.87-6.77a.27.27,0,0,1,.34,0l6.53,5,2.47,1.91v-.13ZM57.67,14.29a.27.27,0,0,0-.34,0l-4.65,3.57-1.12.86L50.4,22.54l6.93-5.28a.27.27,0,0,1,.34,0l6.93,5.28-1.19-3.82Z" transform="translate(-2.43 -1.39)"/>
  </g>
</svg>
